<mxfile host="app.diagrams.net" agent="Mozilla/5.0 (X11; Linux x86_64; rv:133.0) Gecko/20100101 Firefox/133.0" version="25.0.1">
  <diagram name="Página-1" id="l8TZEkzOrfuNHdQrNQBe">
    <mxGraphModel dx="1949" dy="1094" grid="1" gridSize="10" guides="1" tooltips="1" connect="1" arrows="1" fold="1" page="1" pageScale="1" pageWidth="827" pageHeight="1169" math="0" shadow="0">
      <root>
        <mxCell id="0" />
        <mxCell id="1" parent="0" />
        <mxCell id="p9cd9EM_wSnG54zDOa8z-1" value="" style="rounded=0;whiteSpace=wrap;html=1;" parent="1" vertex="1">
          <mxGeometry x="230" y="130" width="360" height="510" as="geometry" />
        </mxCell>
        <mxCell id="p9cd9EM_wSnG54zDOa8z-2" value="&lt;b&gt;&lt;font style=&quot;font-size: 21px;&quot;&gt;MICROCONTROLADOR&lt;/font&gt;&lt;/b&gt;" style="text;html=1;align=center;verticalAlign=middle;whiteSpace=wrap;rounded=0;" parent="1" vertex="1">
          <mxGeometry x="375" y="100" width="60" height="30" as="geometry" />
        </mxCell>
        <mxCell id="p9cd9EM_wSnG54zDOa8z-3" value="" style="rounded=0;whiteSpace=wrap;html=1;" parent="1" vertex="1">
          <mxGeometry x="240" y="180" width="340" height="450" as="geometry" />
        </mxCell>
        <mxCell id="p9cd9EM_wSnG54zDOa8z-4" value="&lt;b&gt;&lt;font style=&quot;font-size: 21px;&quot;&gt;RTOS&lt;/font&gt;&lt;/b&gt;" style="text;html=1;align=center;verticalAlign=middle;whiteSpace=wrap;rounded=0;" parent="1" vertex="1">
          <mxGeometry x="375" y="150" width="60" height="30" as="geometry" />
        </mxCell>
        <mxCell id="6cCJc_U-txOpgs2dM9qW-9" style="edgeStyle=orthogonalEdgeStyle;rounded=0;orthogonalLoop=1;jettySize=auto;html=1;exitX=1;exitY=0.5;exitDx=0;exitDy=0;entryX=0;entryY=0.5;entryDx=0;entryDy=0;" parent="1" source="6cCJc_U-txOpgs2dM9qW-1" target="6cCJc_U-txOpgs2dM9qW-8" edge="1">
          <mxGeometry relative="1" as="geometry" />
        </mxCell>
        <mxCell id="6cCJc_U-txOpgs2dM9qW-10" value="EVENTO" style="edgeLabel;html=1;align=center;verticalAlign=middle;resizable=0;points=[];" parent="6cCJc_U-txOpgs2dM9qW-9" vertex="1" connectable="0">
          <mxGeometry x="-0.1227" relative="1" as="geometry">
            <mxPoint as="offset" />
          </mxGeometry>
        </mxCell>
        <mxCell id="6cCJc_U-txOpgs2dM9qW-1" value="RFID" style="whiteSpace=wrap;html=1;aspect=fixed;" parent="1" vertex="1">
          <mxGeometry x="70" y="200" width="80" height="80" as="geometry" />
        </mxCell>
        <mxCell id="6cCJc_U-txOpgs2dM9qW-38" style="edgeStyle=orthogonalEdgeStyle;rounded=0;orthogonalLoop=1;jettySize=auto;html=1;exitX=1;exitY=0.5;exitDx=0;exitDy=0;entryX=0;entryY=0.5;entryDx=0;entryDy=0;" parent="1" source="6cCJc_U-txOpgs2dM9qW-5" target="6cCJc_U-txOpgs2dM9qW-37" edge="1">
          <mxGeometry relative="1" as="geometry" />
        </mxCell>
        <mxCell id="6cCJc_U-txOpgs2dM9qW-39" value="EVENTO" style="edgeLabel;html=1;align=center;verticalAlign=middle;resizable=0;points=[];" parent="6cCJc_U-txOpgs2dM9qW-38" vertex="1" connectable="0">
          <mxGeometry x="-0.0895" y="1" relative="1" as="geometry">
            <mxPoint as="offset" />
          </mxGeometry>
        </mxCell>
        <mxCell id="6cCJc_U-txOpgs2dM9qW-5" value="CHAVE DE SEGURANÇA" style="rounded=0;whiteSpace=wrap;html=1;" parent="1" vertex="1">
          <mxGeometry x="40" y="411.88" width="100" height="45" as="geometry" />
        </mxCell>
        <mxCell id="6cCJc_U-txOpgs2dM9qW-52" style="edgeStyle=orthogonalEdgeStyle;rounded=0;orthogonalLoop=1;jettySize=auto;html=1;exitX=0.5;exitY=1;exitDx=0;exitDy=0;entryX=0.5;entryY=0;entryDx=0;entryDy=0;" parent="1" source="6cCJc_U-txOpgs2dM9qW-6" target="6cCJc_U-txOpgs2dM9qW-7" edge="1">
          <mxGeometry relative="1" as="geometry" />
        </mxCell>
        <mxCell id="6cCJc_U-txOpgs2dM9qW-6" value="RELÉ" style="whiteSpace=wrap;html=1;aspect=fixed;" parent="1" vertex="1">
          <mxGeometry x="362.5" y="670" width="80" height="80" as="geometry" />
        </mxCell>
        <mxCell id="6cCJc_U-txOpgs2dM9qW-7" value="FECHADURA SOLENÓIDE" style="whiteSpace=wrap;html=1;aspect=fixed;" parent="1" vertex="1">
          <mxGeometry x="362.5" y="770" width="80" height="80" as="geometry" />
        </mxCell>
        <mxCell id="6cCJc_U-txOpgs2dM9qW-49" style="edgeStyle=orthogonalEdgeStyle;rounded=0;orthogonalLoop=1;jettySize=auto;html=1;exitX=1;exitY=0.5;exitDx=0;exitDy=0;entryX=0.5;entryY=0;entryDx=0;entryDy=0;" parent="1" source="6cCJc_U-txOpgs2dM9qW-8" target="6cCJc_U-txOpgs2dM9qW-41" edge="1">
          <mxGeometry relative="1" as="geometry" />
        </mxCell>
        <mxCell id="6cCJc_U-txOpgs2dM9qW-8" value="ATENDE RFID" style="whiteSpace=wrap;html=1;aspect=fixed;" parent="1" vertex="1">
          <mxGeometry x="260" y="200" width="80" height="80" as="geometry" />
        </mxCell>
        <mxCell id="6cCJc_U-txOpgs2dM9qW-11" value="" style="rounded=0;whiteSpace=wrap;html=1;" parent="1" vertex="1">
          <mxGeometry x="633" y="190" width="120" height="340" as="geometry" />
        </mxCell>
        <mxCell id="6cCJc_U-txOpgs2dM9qW-12" value="" style="rounded=0;whiteSpace=wrap;html=1;" parent="1" vertex="1">
          <mxGeometry x="641.75" y="220" width="102.5" height="300" as="geometry" />
        </mxCell>
        <mxCell id="6cCJc_U-txOpgs2dM9qW-13" value="WEB" style="text;html=1;align=center;verticalAlign=middle;whiteSpace=wrap;rounded=0;" parent="1" vertex="1">
          <mxGeometry x="663.01" y="190" width="60" height="30" as="geometry" />
        </mxCell>
        <mxCell id="6cCJc_U-txOpgs2dM9qW-14" value="GERENCIA CADASTROS" style="whiteSpace=wrap;html=1;aspect=fixed;" parent="1" vertex="1">
          <mxGeometry x="651.13" y="230" width="83.75" height="83.75" as="geometry" />
        </mxCell>
        <mxCell id="6cCJc_U-txOpgs2dM9qW-15" value="ABRE PORTA" style="whiteSpace=wrap;html=1;aspect=fixed;" parent="1" vertex="1">
          <mxGeometry x="651.13" y="328.13" width="83.75" height="83.75" as="geometry" />
        </mxCell>
        <mxCell id="6cCJc_U-txOpgs2dM9qW-16" value="MONITOR" style="whiteSpace=wrap;html=1;aspect=fixed;" parent="1" vertex="1">
          <mxGeometry x="651.13" y="430" width="83.75" height="83.75" as="geometry" />
        </mxCell>
        <mxCell id="6cCJc_U-txOpgs2dM9qW-17" value="" style="rounded=0;whiteSpace=wrap;html=1;" parent="1" vertex="1">
          <mxGeometry x="449" y="190" width="120" height="340" as="geometry" />
        </mxCell>
        <mxCell id="6cCJc_U-txOpgs2dM9qW-18" value="" style="rounded=0;whiteSpace=wrap;html=1;" parent="1" vertex="1">
          <mxGeometry x="457.75" y="220" width="102.5" height="300" as="geometry" />
        </mxCell>
        <mxCell id="6cCJc_U-txOpgs2dM9qW-19" value="ATENDE WEB" style="text;html=1;align=center;verticalAlign=middle;whiteSpace=wrap;rounded=0;" parent="1" vertex="1">
          <mxGeometry x="459" y="190" width="100" height="30" as="geometry" />
        </mxCell>
        <mxCell id="6cCJc_U-txOpgs2dM9qW-53" style="edgeStyle=orthogonalEdgeStyle;rounded=0;orthogonalLoop=1;jettySize=auto;html=1;exitX=0;exitY=0.5;exitDx=0;exitDy=0;entryX=1;entryY=0.25;entryDx=0;entryDy=0;" parent="1" source="6cCJc_U-txOpgs2dM9qW-20" target="6cCJc_U-txOpgs2dM9qW-8" edge="1">
          <mxGeometry relative="1" as="geometry">
            <Array as="points">
              <mxPoint x="420" y="272" />
              <mxPoint x="420" y="220" />
            </Array>
          </mxGeometry>
        </mxCell>
        <mxCell id="6cCJc_U-txOpgs2dM9qW-20" value="ATUALIZA CADASTROS" style="whiteSpace=wrap;html=1;aspect=fixed;" parent="1" vertex="1">
          <mxGeometry x="467.13" y="230" width="83.75" height="83.75" as="geometry" />
        </mxCell>
        <mxCell id="6cCJc_U-txOpgs2dM9qW-21" value="ABRE PORTA" style="whiteSpace=wrap;html=1;aspect=fixed;" parent="1" vertex="1">
          <mxGeometry x="467.13" y="328.13" width="83.75" height="83.75" as="geometry" />
        </mxCell>
        <mxCell id="6cCJc_U-txOpgs2dM9qW-22" value="REGISTRA AÇÕES" style="whiteSpace=wrap;html=1;aspect=fixed;" parent="1" vertex="1">
          <mxGeometry x="467.13" y="430" width="83.75" height="83.75" as="geometry" />
        </mxCell>
        <mxCell id="6cCJc_U-txOpgs2dM9qW-24" style="edgeStyle=orthogonalEdgeStyle;rounded=0;orthogonalLoop=1;jettySize=auto;html=1;exitX=0;exitY=0.5;exitDx=0;exitDy=0;entryX=1;entryY=0.5;entryDx=0;entryDy=0;" parent="1" source="6cCJc_U-txOpgs2dM9qW-14" target="6cCJc_U-txOpgs2dM9qW-20" edge="1">
          <mxGeometry relative="1" as="geometry" />
        </mxCell>
        <mxCell id="6cCJc_U-txOpgs2dM9qW-29" value="POST" style="edgeLabel;html=1;align=center;verticalAlign=middle;resizable=0;points=[];" parent="6cCJc_U-txOpgs2dM9qW-24" vertex="1" connectable="0">
          <mxGeometry x="-0.1515" y="3" relative="1" as="geometry">
            <mxPoint y="-3" as="offset" />
          </mxGeometry>
        </mxCell>
        <mxCell id="6cCJc_U-txOpgs2dM9qW-26" style="edgeStyle=orthogonalEdgeStyle;rounded=0;orthogonalLoop=1;jettySize=auto;html=1;exitX=0;exitY=0.5;exitDx=0;exitDy=0;entryX=1;entryY=0.5;entryDx=0;entryDy=0;" parent="1" source="6cCJc_U-txOpgs2dM9qW-15" target="6cCJc_U-txOpgs2dM9qW-21" edge="1">
          <mxGeometry relative="1" as="geometry" />
        </mxCell>
        <mxCell id="6cCJc_U-txOpgs2dM9qW-30" value="GET" style="edgeLabel;html=1;align=center;verticalAlign=middle;resizable=0;points=[];" parent="6cCJc_U-txOpgs2dM9qW-26" vertex="1" connectable="0">
          <mxGeometry x="-0.1116" y="1" relative="1" as="geometry">
            <mxPoint as="offset" />
          </mxGeometry>
        </mxCell>
        <mxCell id="6cCJc_U-txOpgs2dM9qW-27" style="edgeStyle=orthogonalEdgeStyle;rounded=0;orthogonalLoop=1;jettySize=auto;html=1;exitX=0;exitY=0.5;exitDx=0;exitDy=0;entryX=1;entryY=0.5;entryDx=0;entryDy=0;startArrow=classic;startFill=1;endArrow=none;endFill=0;" parent="1" source="6cCJc_U-txOpgs2dM9qW-16" target="6cCJc_U-txOpgs2dM9qW-22" edge="1">
          <mxGeometry relative="1" as="geometry" />
        </mxCell>
        <mxCell id="6cCJc_U-txOpgs2dM9qW-32" value="GET" style="edgeLabel;html=1;align=center;verticalAlign=middle;resizable=0;points=[];" parent="6cCJc_U-txOpgs2dM9qW-27" vertex="1" connectable="0">
          <mxGeometry x="0.0081" relative="1" as="geometry">
            <mxPoint x="5" as="offset" />
          </mxGeometry>
        </mxCell>
        <mxCell id="6cCJc_U-txOpgs2dM9qW-33" style="edgeStyle=orthogonalEdgeStyle;rounded=0;orthogonalLoop=1;jettySize=auto;html=1;exitX=1;exitY=0.5;exitDx=0;exitDy=0;entryX=0;entryY=0.5;entryDx=0;entryDy=0;" parent="1" source="6cCJc_U-txOpgs2dM9qW-35" target="6cCJc_U-txOpgs2dM9qW-36" edge="1">
          <mxGeometry relative="1" as="geometry" />
        </mxCell>
        <mxCell id="6cCJc_U-txOpgs2dM9qW-34" value="VARREDURA" style="edgeLabel;html=1;align=center;verticalAlign=middle;resizable=0;points=[];" parent="6cCJc_U-txOpgs2dM9qW-33" vertex="1" connectable="0">
          <mxGeometry x="-0.1227" relative="1" as="geometry">
            <mxPoint as="offset" />
          </mxGeometry>
        </mxCell>
        <mxCell id="6cCJc_U-txOpgs2dM9qW-35" value="TECLADO" style="whiteSpace=wrap;html=1;aspect=fixed;" parent="1" vertex="1">
          <mxGeometry x="50" y="305" width="80" height="80" as="geometry" />
        </mxCell>
        <mxCell id="6cCJc_U-txOpgs2dM9qW-55" style="edgeStyle=orthogonalEdgeStyle;rounded=0;orthogonalLoop=1;jettySize=auto;html=1;exitX=1;exitY=0.75;exitDx=0;exitDy=0;entryX=0;entryY=0.5;entryDx=0;entryDy=0;" parent="1" source="6cCJc_U-txOpgs2dM9qW-36" target="6cCJc_U-txOpgs2dM9qW-22" edge="1">
          <mxGeometry relative="1" as="geometry">
            <Array as="points">
              <mxPoint x="360" y="365" />
              <mxPoint x="360" y="472" />
            </Array>
          </mxGeometry>
        </mxCell>
        <mxCell id="6cCJc_U-txOpgs2dM9qW-36" value="ATENDE TECLADO" style="whiteSpace=wrap;html=1;aspect=fixed;" parent="1" vertex="1">
          <mxGeometry x="260" y="305" width="80" height="80" as="geometry" />
        </mxCell>
        <mxCell id="6cCJc_U-txOpgs2dM9qW-54" style="edgeStyle=orthogonalEdgeStyle;rounded=0;orthogonalLoop=1;jettySize=auto;html=1;exitX=1;exitY=0.5;exitDx=0;exitDy=0;entryX=0;entryY=0.75;entryDx=0;entryDy=0;" parent="1" source="6cCJc_U-txOpgs2dM9qW-37" target="6cCJc_U-txOpgs2dM9qW-22" edge="1">
          <mxGeometry relative="1" as="geometry">
            <Array as="points">
              <mxPoint x="350" y="434" />
              <mxPoint x="350" y="493" />
            </Array>
          </mxGeometry>
        </mxCell>
        <mxCell id="6cCJc_U-txOpgs2dM9qW-37" value="ATENDE CHAVE" style="rounded=0;whiteSpace=wrap;html=1;" parent="1" vertex="1">
          <mxGeometry x="265" y="405.32" width="70" height="58.12" as="geometry" />
        </mxCell>
        <mxCell id="6cCJc_U-txOpgs2dM9qW-51" style="edgeStyle=orthogonalEdgeStyle;rounded=0;orthogonalLoop=1;jettySize=auto;html=1;exitX=0.5;exitY=1;exitDx=0;exitDy=0;entryX=0.5;entryY=0;entryDx=0;entryDy=0;" parent="1" source="6cCJc_U-txOpgs2dM9qW-41" target="6cCJc_U-txOpgs2dM9qW-6" edge="1">
          <mxGeometry relative="1" as="geometry" />
        </mxCell>
        <mxCell id="6cCJc_U-txOpgs2dM9qW-41" value="CONTROLA FECHADURA" style="rounded=0;whiteSpace=wrap;html=1;" parent="1" vertex="1">
          <mxGeometry x="245" y="570" width="315" height="45" as="geometry" />
        </mxCell>
        <mxCell id="6cCJc_U-txOpgs2dM9qW-47" style="edgeStyle=orthogonalEdgeStyle;rounded=0;orthogonalLoop=1;jettySize=auto;html=1;exitX=0.5;exitY=1;exitDx=0;exitDy=0;entryX=0.176;entryY=-0.004;entryDx=0;entryDy=0;entryPerimeter=0;" parent="1" source="6cCJc_U-txOpgs2dM9qW-37" target="6cCJc_U-txOpgs2dM9qW-41" edge="1">
          <mxGeometry relative="1" as="geometry" />
        </mxCell>
        <mxCell id="6cCJc_U-txOpgs2dM9qW-48" style="edgeStyle=orthogonalEdgeStyle;rounded=0;orthogonalLoop=1;jettySize=auto;html=1;exitX=1;exitY=0.5;exitDx=0;exitDy=0;entryX=0.393;entryY=-0.007;entryDx=0;entryDy=0;entryPerimeter=0;" parent="1" source="6cCJc_U-txOpgs2dM9qW-36" target="6cCJc_U-txOpgs2dM9qW-41" edge="1">
          <mxGeometry relative="1" as="geometry" />
        </mxCell>
        <mxCell id="6cCJc_U-txOpgs2dM9qW-50" style="edgeStyle=orthogonalEdgeStyle;rounded=0;orthogonalLoop=1;jettySize=auto;html=1;exitX=0;exitY=0.5;exitDx=0;exitDy=0;entryX=0.585;entryY=-0.022;entryDx=0;entryDy=0;entryPerimeter=0;" parent="1" edge="1">
          <mxGeometry relative="1" as="geometry">
            <mxPoint x="467.13" y="370.995" as="sourcePoint" />
            <mxPoint x="429.275" y="570" as="targetPoint" />
          </mxGeometry>
        </mxCell>
        <mxCell id="6cCJc_U-txOpgs2dM9qW-56" style="edgeStyle=orthogonalEdgeStyle;rounded=0;orthogonalLoop=1;jettySize=auto;html=1;exitX=1;exitY=0.75;exitDx=0;exitDy=0;entryX=0;entryY=0.25;entryDx=0;entryDy=0;" parent="1" source="6cCJc_U-txOpgs2dM9qW-8" target="6cCJc_U-txOpgs2dM9qW-22" edge="1">
          <mxGeometry relative="1" as="geometry">
            <Array as="points">
              <mxPoint x="380" y="260" />
              <mxPoint x="380" y="451" />
            </Array>
          </mxGeometry>
        </mxCell>
        <mxCell id="miMeLAVxyeGylqBHgeCv-2" style="edgeStyle=orthogonalEdgeStyle;rounded=0;orthogonalLoop=1;jettySize=auto;html=1;exitX=0.5;exitY=1;exitDx=0;exitDy=0;entryX=0.5;entryY=0;entryDx=0;entryDy=0;" edge="1" parent="1" source="miMeLAVxyeGylqBHgeCv-3" target="miMeLAVxyeGylqBHgeCv-4">
          <mxGeometry relative="1" as="geometry" />
        </mxCell>
        <mxCell id="miMeLAVxyeGylqBHgeCv-9" value="Contato como Chave" style="edgeLabel;html=1;align=center;verticalAlign=middle;resizable=0;points=[];rotation=0;" vertex="1" connectable="0" parent="miMeLAVxyeGylqBHgeCv-2">
          <mxGeometry x="-0.0389" y="2" relative="1" as="geometry">
            <mxPoint x="-2" y="-4" as="offset" />
          </mxGeometry>
        </mxCell>
        <mxCell id="miMeLAVxyeGylqBHgeCv-3" value="RELÉ" style="whiteSpace=wrap;html=1;aspect=fixed;rotation=0;" vertex="1" parent="1">
          <mxGeometry x="1235" y="838.81" width="80" height="80" as="geometry" />
        </mxCell>
        <mxCell id="miMeLAVxyeGylqBHgeCv-4" value="FECHADURA SOLENÓIDE" style="whiteSpace=wrap;html=1;aspect=fixed;rotation=0;" vertex="1" parent="1">
          <mxGeometry x="1235" y="958.8100000000002" width="80" height="80" as="geometry" />
        </mxCell>
        <mxCell id="miMeLAVxyeGylqBHgeCv-7" style="edgeStyle=orthogonalEdgeStyle;rounded=0;orthogonalLoop=1;jettySize=auto;html=1;exitX=0.5;exitY=1;exitDx=0;exitDy=0;entryX=0.5;entryY=0;entryDx=0;entryDy=0;" edge="1" parent="1" source="miMeLAVxyeGylqBHgeCv-6" target="miMeLAVxyeGylqBHgeCv-3">
          <mxGeometry relative="1" as="geometry" />
        </mxCell>
        <mxCell id="miMeLAVxyeGylqBHgeCv-8" value="Saída Digital" style="edgeLabel;html=1;align=center;verticalAlign=middle;resizable=0;points=[];rotation=0;" vertex="1" connectable="0" parent="miMeLAVxyeGylqBHgeCv-7">
          <mxGeometry x="-0.0678" y="-1" relative="1" as="geometry">
            <mxPoint y="-2" as="offset" />
          </mxGeometry>
        </mxCell>
        <mxCell id="miMeLAVxyeGylqBHgeCv-6" value="&lt;span lang=&quot;pt&quot; class=&quot;BxUVEf ILfuVd&quot;&gt;&lt;span class=&quot;hgKElc&quot;&gt;μC&lt;/span&gt;&lt;/span&gt;" style="rounded=0;whiteSpace=wrap;html=1;rotation=0;" vertex="1" parent="1">
          <mxGeometry x="1220" y="702.81" width="110" height="100" as="geometry" />
        </mxCell>
        <mxCell id="miMeLAVxyeGylqBHgeCv-16" style="edgeStyle=orthogonalEdgeStyle;rounded=0;orthogonalLoop=1;jettySize=auto;html=1;exitX=1;exitY=0.5;exitDx=0;exitDy=0;entryX=0;entryY=0.25;entryDx=0;entryDy=0;" edge="1" parent="1" source="miMeLAVxyeGylqBHgeCv-10" target="miMeLAVxyeGylqBHgeCv-6">
          <mxGeometry relative="1" as="geometry">
            <Array as="points">
              <mxPoint x="1179" y="661.81" />
              <mxPoint x="1179" y="726.81" />
            </Array>
          </mxGeometry>
        </mxCell>
        <mxCell id="miMeLAVxyeGylqBHgeCv-25" value="SPI" style="edgeLabel;html=1;align=center;verticalAlign=middle;resizable=0;points=[];rotation=0;" vertex="1" connectable="0" parent="miMeLAVxyeGylqBHgeCv-16">
          <mxGeometry x="-0.7848" relative="1" as="geometry">
            <mxPoint x="35" y="57" as="offset" />
          </mxGeometry>
        </mxCell>
        <mxCell id="miMeLAVxyeGylqBHgeCv-10" value="RFID" style="whiteSpace=wrap;html=1;aspect=fixed;rotation=0;" vertex="1" parent="1">
          <mxGeometry x="1069" y="622.81" width="80" height="80" as="geometry" />
        </mxCell>
        <mxCell id="miMeLAVxyeGylqBHgeCv-13" style="edgeStyle=orthogonalEdgeStyle;rounded=0;orthogonalLoop=1;jettySize=auto;html=1;exitX=1;exitY=0.5;exitDx=0;exitDy=0;entryX=0;entryY=0.75;entryDx=0;entryDy=0;" edge="1" parent="1" source="miMeLAVxyeGylqBHgeCv-11" target="miMeLAVxyeGylqBHgeCv-6">
          <mxGeometry relative="1" as="geometry">
            <Array as="points">
              <mxPoint x="1179" y="824.81" />
              <mxPoint x="1179" y="776.81" />
            </Array>
          </mxGeometry>
        </mxCell>
        <mxCell id="miMeLAVxyeGylqBHgeCv-14" value="Entrada Digital" style="edgeLabel;html=1;align=center;verticalAlign=middle;resizable=0;points=[];rotation=0;" vertex="1" connectable="0" parent="miMeLAVxyeGylqBHgeCv-13">
          <mxGeometry x="-0.0626" relative="1" as="geometry">
            <mxPoint x="8" y="34" as="offset" />
          </mxGeometry>
        </mxCell>
        <mxCell id="miMeLAVxyeGylqBHgeCv-11" value="CHAVE DE SEGURANÇA" style="rounded=0;whiteSpace=wrap;html=1;rotation=0;" vertex="1" parent="1">
          <mxGeometry x="1049" y="802.81" width="100" height="45" as="geometry" />
        </mxCell>
        <mxCell id="miMeLAVxyeGylqBHgeCv-21" style="edgeStyle=orthogonalEdgeStyle;rounded=0;orthogonalLoop=1;jettySize=auto;html=1;exitX=1;exitY=0.5;exitDx=0;exitDy=0;entryX=0;entryY=0.5;entryDx=0;entryDy=0;startArrow=classic;startFill=1;" edge="1" parent="1" source="miMeLAVxyeGylqBHgeCv-12" target="miMeLAVxyeGylqBHgeCv-19">
          <mxGeometry relative="1" as="geometry" />
        </mxCell>
        <mxCell id="miMeLAVxyeGylqBHgeCv-22" value="E/S Digital" style="edgeLabel;html=1;align=center;verticalAlign=middle;resizable=0;points=[];rotation=0;" vertex="1" connectable="0" parent="miMeLAVxyeGylqBHgeCv-21">
          <mxGeometry x="-0.2035" relative="1" as="geometry">
            <mxPoint x="8" y="9" as="offset" />
          </mxGeometry>
        </mxCell>
        <mxCell id="miMeLAVxyeGylqBHgeCv-12" value="TECLADO" style="whiteSpace=wrap;html=1;aspect=fixed;rotation=0;" vertex="1" parent="1">
          <mxGeometry x="910" y="712.81" width="80" height="80" as="geometry" />
        </mxCell>
        <mxCell id="miMeLAVxyeGylqBHgeCv-23" style="edgeStyle=orthogonalEdgeStyle;rounded=0;orthogonalLoop=1;jettySize=auto;html=1;exitX=1;exitY=0.5;exitDx=0;exitDy=0;entryX=0;entryY=0.5;entryDx=0;entryDy=0;" edge="1" parent="1" source="miMeLAVxyeGylqBHgeCv-19" target="miMeLAVxyeGylqBHgeCv-6">
          <mxGeometry relative="1" as="geometry" />
        </mxCell>
        <mxCell id="miMeLAVxyeGylqBHgeCv-24" value="I2C" style="edgeLabel;html=1;align=center;verticalAlign=middle;resizable=0;points=[];rotation=0;" vertex="1" connectable="0" parent="miMeLAVxyeGylqBHgeCv-23">
          <mxGeometry x="-0.1868" y="-1" relative="1" as="geometry">
            <mxPoint y="7" as="offset" />
          </mxGeometry>
        </mxCell>
        <mxCell id="miMeLAVxyeGylqBHgeCv-19" value="EXPANSOR I2C" style="rounded=0;whiteSpace=wrap;html=1;rotation=0;" vertex="1" parent="1">
          <mxGeometry x="1070" y="739.81" width="110" height="25.94" as="geometry" />
        </mxCell>
        <mxCell id="miMeLAVxyeGylqBHgeCv-46" style="edgeStyle=orthogonalEdgeStyle;rounded=0;orthogonalLoop=1;jettySize=auto;html=1;exitX=1;exitY=0.5;exitDx=0;exitDy=0;entryX=0;entryY=0.5;entryDx=0;entryDy=0;" edge="1" parent="1" source="miMeLAVxyeGylqBHgeCv-31" target="miMeLAVxyeGylqBHgeCv-33">
          <mxGeometry relative="1" as="geometry" />
        </mxCell>
        <mxCell id="miMeLAVxyeGylqBHgeCv-57" style="edgeStyle=orthogonalEdgeStyle;rounded=0;orthogonalLoop=1;jettySize=auto;html=1;exitX=0;exitY=0.5;exitDx=0;exitDy=0;entryX=0;entryY=0.25;entryDx=0;entryDy=0;dashed=1;endArrow=none;endFill=0;" edge="1" parent="1" source="miMeLAVxyeGylqBHgeCv-31" target="miMeLAVxyeGylqBHgeCv-6">
          <mxGeometry relative="1" as="geometry">
            <Array as="points">
              <mxPoint x="990" y="399.68" />
              <mxPoint x="990" y="614.6800000000001" />
              <mxPoint x="1240" y="614.6800000000001" />
              <mxPoint x="1240" y="727.6800000000001" />
            </Array>
          </mxGeometry>
        </mxCell>
        <mxCell id="miMeLAVxyeGylqBHgeCv-31" value="SPI" style="rounded=0;whiteSpace=wrap;html=1;" vertex="1" parent="1">
          <mxGeometry x="1010" y="382.5" width="30" height="35" as="geometry" />
        </mxCell>
        <mxCell id="miMeLAVxyeGylqBHgeCv-48" style="edgeStyle=orthogonalEdgeStyle;rounded=0;orthogonalLoop=1;jettySize=auto;html=1;exitX=1;exitY=0.5;exitDx=0;exitDy=0;entryX=0;entryY=0.5;entryDx=0;entryDy=0;" edge="1" parent="1" source="miMeLAVxyeGylqBHgeCv-32" target="miMeLAVxyeGylqBHgeCv-34">
          <mxGeometry relative="1" as="geometry" />
        </mxCell>
        <mxCell id="miMeLAVxyeGylqBHgeCv-56" style="edgeStyle=orthogonalEdgeStyle;rounded=0;orthogonalLoop=1;jettySize=auto;html=1;exitX=0;exitY=0.5;exitDx=0;exitDy=0;entryX=0;entryY=0.5;entryDx=0;entryDy=0;dashed=1;endArrow=none;endFill=0;" edge="1" parent="1" source="miMeLAVxyeGylqBHgeCv-32" target="miMeLAVxyeGylqBHgeCv-6">
          <mxGeometry relative="1" as="geometry">
            <Array as="points">
              <mxPoint x="1000" y="484.68" />
              <mxPoint x="1000" y="594.6800000000001" />
              <mxPoint x="1250" y="594.6800000000001" />
              <mxPoint x="1250" y="752.6800000000001" />
            </Array>
          </mxGeometry>
        </mxCell>
        <mxCell id="miMeLAVxyeGylqBHgeCv-32" value="I2C" style="rounded=0;whiteSpace=wrap;html=1;" vertex="1" parent="1">
          <mxGeometry x="1010" y="467.49999999999994" width="30" height="35" as="geometry" />
        </mxCell>
        <mxCell id="miMeLAVxyeGylqBHgeCv-49" style="edgeStyle=orthogonalEdgeStyle;rounded=0;orthogonalLoop=1;jettySize=auto;html=1;exitX=1;exitY=0.5;exitDx=0;exitDy=0;entryX=0;entryY=0.5;entryDx=0;entryDy=0;" edge="1" parent="1" source="miMeLAVxyeGylqBHgeCv-33" target="miMeLAVxyeGylqBHgeCv-38">
          <mxGeometry relative="1" as="geometry" />
        </mxCell>
        <mxCell id="miMeLAVxyeGylqBHgeCv-53" style="edgeStyle=orthogonalEdgeStyle;rounded=0;orthogonalLoop=1;jettySize=auto;html=1;exitX=1;exitY=0.5;exitDx=0;exitDy=0;entryX=0.5;entryY=0;entryDx=0;entryDy=0;" edge="1" parent="1" source="miMeLAVxyeGylqBHgeCv-33" target="miMeLAVxyeGylqBHgeCv-37">
          <mxGeometry relative="1" as="geometry" />
        </mxCell>
        <mxCell id="miMeLAVxyeGylqBHgeCv-33" value="PROCESSA CARTÃO" style="rounded=0;whiteSpace=wrap;html=1;" vertex="1" parent="1">
          <mxGeometry x="1075" y="370" width="130" height="60" as="geometry" />
        </mxCell>
        <mxCell id="miMeLAVxyeGylqBHgeCv-50" style="edgeStyle=orthogonalEdgeStyle;rounded=0;orthogonalLoop=1;jettySize=auto;html=1;exitX=1;exitY=0.5;exitDx=0;exitDy=0;entryX=0;entryY=0.75;entryDx=0;entryDy=0;" edge="1" parent="1" source="miMeLAVxyeGylqBHgeCv-34" target="miMeLAVxyeGylqBHgeCv-38">
          <mxGeometry relative="1" as="geometry">
            <mxPoint x="1207.5" y="484.99999999999994" as="sourcePoint" />
            <mxPoint x="1352.5" y="411.24999999999994" as="targetPoint" />
            <Array as="points">
              <mxPoint x="1250" y="484.99999999999994" />
              <mxPoint x="1250" y="410.99999999999994" />
            </Array>
          </mxGeometry>
        </mxCell>
        <mxCell id="miMeLAVxyeGylqBHgeCv-52" style="edgeStyle=orthogonalEdgeStyle;rounded=0;orthogonalLoop=1;jettySize=auto;html=1;exitX=1;exitY=0.5;exitDx=0;exitDy=0;entryX=0.25;entryY=0;entryDx=0;entryDy=0;" edge="1" parent="1" source="miMeLAVxyeGylqBHgeCv-34" target="miMeLAVxyeGylqBHgeCv-37">
          <mxGeometry relative="1" as="geometry" />
        </mxCell>
        <mxCell id="miMeLAVxyeGylqBHgeCv-34" value="PROCESSA SENHA" style="rounded=0;whiteSpace=wrap;html=1;" vertex="1" parent="1">
          <mxGeometry x="1075" y="454.99999999999994" width="130" height="60" as="geometry" />
        </mxCell>
        <mxCell id="miMeLAVxyeGylqBHgeCv-55" style="edgeStyle=orthogonalEdgeStyle;rounded=0;orthogonalLoop=1;jettySize=auto;html=1;exitX=1;exitY=0.5;exitDx=0;exitDy=0;entryX=1;entryY=0.5;entryDx=0;entryDy=0;dashed=1;endArrow=none;endFill=0;" edge="1" parent="1" source="miMeLAVxyeGylqBHgeCv-37" target="miMeLAVxyeGylqBHgeCv-6">
          <mxGeometry relative="1" as="geometry" />
        </mxCell>
        <mxCell id="miMeLAVxyeGylqBHgeCv-37" value="ARMAZENAMENTO" style="rounded=0;whiteSpace=wrap;html=1;" vertex="1" parent="1">
          <mxGeometry x="1220" y="530" width="120" height="60" as="geometry" />
        </mxCell>
        <mxCell id="miMeLAVxyeGylqBHgeCv-38" value="CONTROLA FECHADURA" style="rounded=0;whiteSpace=wrap;html=1;" vertex="1" parent="1">
          <mxGeometry x="1350" y="377.5" width="165" height="45" as="geometry" />
        </mxCell>
        <mxCell id="miMeLAVxyeGylqBHgeCv-51" style="edgeStyle=orthogonalEdgeStyle;rounded=0;orthogonalLoop=1;jettySize=auto;html=1;exitX=1;exitY=0.5;exitDx=0;exitDy=0;entryX=0;entryY=0.25;entryDx=0;entryDy=0;" edge="1" parent="1" source="miMeLAVxyeGylqBHgeCv-39" target="miMeLAVxyeGylqBHgeCv-38">
          <mxGeometry relative="1" as="geometry">
            <Array as="points">
              <mxPoint x="1310" y="320" />
              <mxPoint x="1310" y="389" />
            </Array>
          </mxGeometry>
        </mxCell>
        <mxCell id="miMeLAVxyeGylqBHgeCv-54" style="edgeStyle=orthogonalEdgeStyle;rounded=0;orthogonalLoop=1;jettySize=auto;html=1;exitX=1;exitY=0.5;exitDx=0;exitDy=0;entryX=0.75;entryY=0;entryDx=0;entryDy=0;" edge="1" parent="1" source="miMeLAVxyeGylqBHgeCv-39" target="miMeLAVxyeGylqBHgeCv-37">
          <mxGeometry relative="1" as="geometry" />
        </mxCell>
        <mxCell id="miMeLAVxyeGylqBHgeCv-39" value="ATENDE WEB" style="rounded=0;whiteSpace=wrap;html=1;" vertex="1" parent="1">
          <mxGeometry x="1080" y="300" width="120" height="40" as="geometry" />
        </mxCell>
        <mxCell id="miMeLAVxyeGylqBHgeCv-59" style="edgeStyle=orthogonalEdgeStyle;rounded=0;orthogonalLoop=1;jettySize=auto;html=1;exitX=0.5;exitY=0;exitDx=0;exitDy=0;entryX=0.5;entryY=1;entryDx=0;entryDy=0;" edge="1" parent="1" source="miMeLAVxyeGylqBHgeCv-58" target="miMeLAVxyeGylqBHgeCv-38">
          <mxGeometry relative="1" as="geometry" />
        </mxCell>
        <mxCell id="miMeLAVxyeGylqBHgeCv-60" style="edgeStyle=orthogonalEdgeStyle;rounded=0;orthogonalLoop=1;jettySize=auto;html=1;exitX=0.5;exitY=0;exitDx=0;exitDy=0;entryX=1;entryY=0.25;entryDx=0;entryDy=0;" edge="1" parent="1" source="miMeLAVxyeGylqBHgeCv-58" target="miMeLAVxyeGylqBHgeCv-37">
          <mxGeometry relative="1" as="geometry">
            <Array as="points">
              <mxPoint x="1433" y="441.99999999999994" />
              <mxPoint x="1360" y="441.99999999999994" />
              <mxPoint x="1360" y="545" />
            </Array>
          </mxGeometry>
        </mxCell>
        <mxCell id="miMeLAVxyeGylqBHgeCv-58" value="PROCESSA CHAVE" style="rounded=0;whiteSpace=wrap;html=1;" vertex="1" parent="1">
          <mxGeometry x="1367.5" y="461.88000000000005" width="130" height="60" as="geometry" />
        </mxCell>
        <mxCell id="miMeLAVxyeGylqBHgeCv-61" style="edgeStyle=orthogonalEdgeStyle;rounded=0;orthogonalLoop=1;jettySize=auto;html=1;exitX=0;exitY=0.75;exitDx=0;exitDy=0;entryX=0.5;entryY=1;entryDx=0;entryDy=0;dashed=1;endArrow=none;endFill=0;" edge="1" parent="1" source="miMeLAVxyeGylqBHgeCv-6" target="miMeLAVxyeGylqBHgeCv-58">
          <mxGeometry relative="1" as="geometry">
            <Array as="points">
              <mxPoint x="1433" y="777.81" />
            </Array>
          </mxGeometry>
        </mxCell>
      </root>
    </mxGraphModel>
  </diagram>
</mxfile>
